<svg width="17" height="17" viewBox="0 0 17 17" fill="none" xmlns="http://www.w3.org/2000/svg">
<g clip-path="url(#clip0_2_1767)">
<path d="M6.26317 0H0V1.3266L6.26317 5.43004V0Z" fill="#41479B"/>
<path d="M0 4.5354V6.26309H2.63696L0 4.5354Z" fill="#41479B"/>
<path d="M0 10.7368V12.4645L2.63696 10.7368H0Z" fill="#41479B"/>
<path d="M17 1.3266V0H10.7368V5.43004L17 1.3266Z" fill="#41479B"/>
<path d="M17.0002 12.4645V10.7368H14.3633L17.0002 12.4645Z" fill="#41479B"/>
<path d="M10.7368 11.5701V17.0001H17V15.6735L10.7368 11.5701Z" fill="#41479B"/>
<path d="M17.0002 6.26309V4.5354L14.3633 6.26309H17.0002Z" fill="#41479B"/>
<path d="M0 15.6735V17.0001H6.26317V11.5701L0 15.6735Z" fill="#41479B"/>
<path d="M17.0002 15.6733V14.3476L11.4375 10.7368H13.0809L17.0002 13.2808V12.4645L14.3632 10.7368H17.0002V9.84204H9.84229V16.9999H10.737V11.5699L17.0002 15.6733Z" fill="#F5F5F5"/>
<path d="M0 9.84204V10.7368H2.63696L0 12.4645V13.7196L4.59515 10.7368H6.23857L0 14.7864V15.6733L6.26317 11.5699V16.9999H7.1579V9.84204H0Z" fill="#F5F5F5"/>
<path d="M7.1579 0H6.26317V5.43004L0 1.3266V2.7784L5.36841 6.26317H3.72499L0 3.84515V4.53548L2.63696 6.26317H0V7.1579H7.1579V0Z" fill="#F5F5F5"/>
<path d="M17.0002 7.1579V6.26317H14.3632L17.0002 4.53548V3.26433L12.3804 6.26317H10.737L17.0002 2.19755V1.3266L10.737 5.43004V0H9.84229V7.1579H17.0002Z" fill="#F5F5F5"/>
<path d="M17 9.8421V7.1579H9.8421V0H7.1579V7.1579H0V9.8421H7.1579V17H9.8421V9.8421H17Z" fill="#FF4B55"/>
<path d="M4.59515 10.7368L0 13.7196V14.7864L6.23857 10.7368H4.59515Z" fill="#FF4B55"/>
<path d="M11.4375 10.7368L17.0002 14.3476V13.2808L13.0809 10.7368H11.4375Z" fill="#FF4B55"/>
<path d="M5.36841 6.26309L0 2.77832V3.84507L3.72499 6.26309H5.36841Z" fill="#FF4B55"/>
<path d="M12.3802 6.26313L17 3.26429V2.19751L10.7368 6.26313H12.3802Z" fill="#FF4B55"/>
</g>
<defs>
<clipPath id="clip0_2_1767">
<rect width="17" height="17" rx="4" fill="white"/>
</clipPath>
</defs>
</svg>
