<svg width="100" height="101" viewBox="0 0 100 101" fill="none" xmlns="http://www.w3.org/2000/svg">
<path d="M83.4999 73.9364C84.2999 77.0066 84.8499 80.3284 84.8499 83.5999V88.5324H13.3999V83.5999C13.3999 68.9033 22.1999 56.1695 34.8499 50.6331" stroke="#FF0000" stroke-width="2" stroke-miterlimit="10" stroke-linejoin="round"/>
<path d="M62.95 50.4822C65.6 51.5895 68.15 53.1497 70.5 54.9113" stroke="#FF0000" stroke-width="2" stroke-miterlimit="10" stroke-linejoin="round"/>
<path d="M35.7999 51.3377C39.4499 54.2066 44.0499 55.9682 49.0499 55.9682C54.0499 55.9682 58.6499 54.2066 62.2999 51.3377C67.1999 47.4119 70.3499 41.3722 70.4499 34.5775C70.5499 22.649 60.9499 12.8848 49.2499 12.7841C37.2999 12.6834 27.5999 22.347 27.5999 34.3762C27.6499 41.2715 30.7999 47.3113 35.7999 51.3377Z" stroke="#FF0000" stroke-width="2" stroke-miterlimit="10" stroke-linejoin="round"/>
<path d="M77.05 75.5974C83.3184 75.5974 88.4 70.4822 88.4 64.1722C88.4 57.8623 83.3184 52.7471 77.05 52.7471C70.7815 52.7471 65.7 57.8623 65.7 64.1722C65.7 70.4822 70.7815 75.5974 77.05 75.5974Z" stroke="#FF0000" stroke-width="2" stroke-miterlimit="10" stroke-linejoin="round"/>
<path d="M70.3999 64.5749L74.3999 68.6014L83.5999 59.6425" stroke="#FF0000" stroke-width="2" stroke-miterlimit="10" stroke-linejoin="round"/>
</svg>
