<svg width="119" height="58" viewBox="0 0 119 58" fill="none" xmlns="http://www.w3.org/2000/svg">
<g clip-path="url(#clip0_2_1729)">
<path d="M2.07093 48.3657V51.9786H5.87809V48.3657H7.94902V57.7854H5.87809V53.7222H2.07093V57.7854H0V48.3657H2.07093Z" fill="white"/>
<path d="M20.1391 48.3657V50.1093H15.5946V52.2875H19.5325V53.895H15.5946V57.7854H13.5237V48.3657H20.1391Z" fill="white"/>
<path d="M35.4255 48.3657L37.6272 54.8427H37.6533L39.7347 48.3657H42.6476V57.7854H40.7126V51.1094H40.6865L38.3802 57.7854H36.7852L34.4789 51.1775H34.4528V57.7854H32.5178V48.3657H35.4307H35.4255Z" fill="white"/>
<path d="M52.9133 48.3657L56.4328 57.7854H54.2834L53.5722 55.6858H50.0527L49.3153 57.7854H47.2339L50.79 48.3657H52.9133ZM53.0335 54.1463L51.8464 50.6905H51.8203L50.5965 54.1463H53.0335Z" fill="white"/>
<path d="M66.0763 48.3657C66.4999 48.3657 66.8764 48.4338 67.2163 48.5699C67.5562 48.7061 67.8439 48.8946 68.0844 49.1302C68.325 49.3658 68.508 49.6433 68.6388 49.9575C68.7643 50.2717 68.8323 50.6068 68.8323 50.968C68.8323 51.5231 68.7172 51.9996 68.4819 52.408C68.2465 52.8111 67.87 53.1201 67.3418 53.3295V53.3557C67.5981 53.4238 67.8073 53.5337 67.9746 53.6803C68.1419 53.8269 68.2779 53.9945 68.3825 54.1935C68.4871 54.3924 68.5655 54.6071 68.6126 54.848C68.6597 55.0836 68.6963 55.3245 68.712 55.5601C68.7224 55.7119 68.7277 55.8847 68.7381 56.0889C68.7486 56.2931 68.7643 56.4973 68.7852 56.7068C68.8061 56.9162 68.8427 57.1204 68.8898 57.3089C68.9369 57.4974 69.0101 57.6598 69.1094 57.7907H67.0385C66.9235 57.4922 66.8555 57.1361 66.8293 56.7225C66.8032 56.3088 66.7613 55.9109 66.709 55.5339C66.641 55.0417 66.4894 54.6804 66.2593 54.45C66.0292 54.2197 65.6579 54.1045 65.1401 54.1045H63.0692V57.7854H60.9983V48.3657H66.071H66.0763ZM65.3389 52.6279C65.8148 52.6279 66.1704 52.5232 66.4057 52.3137C66.6411 52.1043 66.7613 51.7587 66.7613 51.2822C66.7613 50.8057 66.6411 50.4916 66.4057 50.2874C66.1704 50.0832 65.8148 49.9784 65.3389 49.9784H63.0745V52.6331H65.3389V52.6279Z" fill="white"/>
<path d="M76.3419 48.3657V52.2718L80.0183 48.3657H82.6018L78.9254 52.0886L82.9574 57.7907H80.3635L77.529 53.5547L76.3419 54.7537V57.7907H74.271V48.371H76.3419V48.3657Z" fill="white"/>
<path d="M94.583 48.3657V50.1093H89.6149V52.1305H94.1751V53.7379H89.6149V56.047H94.6876V57.7907H87.5439V48.371H94.583V48.3657Z" fill="white"/>
<path d="M99.1013 50.1093V48.3657H106.81V50.1093H103.991V57.7907H101.92V50.1093H99.1013Z" fill="white"/>
<path d="M113.232 55.4658C113.347 55.6857 113.498 55.8637 113.687 55.9999C113.875 56.136 114.1 56.2355 114.351 56.3036C114.607 56.3716 114.869 56.403 115.14 56.403C115.324 56.403 115.522 56.3873 115.731 56.3559C115.941 56.3245 116.139 56.2669 116.322 56.1779C116.505 56.0889 116.662 55.9684 116.783 55.8166C116.908 55.6648 116.966 55.4658 116.966 55.2302C116.966 54.9736 116.882 54.7694 116.72 54.6123C116.558 54.4552 116.343 54.3243 116.082 54.2144C115.82 54.1044 115.517 54.0154 115.188 53.9369C114.858 53.8583 114.513 53.7693 114.173 53.675C113.823 53.586 113.477 53.4813 113.143 53.3504C112.808 53.2247 112.51 53.0572 112.249 52.8582C111.987 52.654 111.773 52.4027 111.61 52.099C111.448 51.7953 111.365 51.4288 111.365 50.9994C111.365 50.5177 111.469 50.0936 111.673 49.7375C111.877 49.3815 112.149 49.083 112.484 48.8474C112.819 48.6118 113.195 48.4337 113.619 48.3185C114.042 48.2033 114.461 48.1458 114.884 48.1458C115.376 48.1458 115.846 48.2033 116.301 48.3133C116.751 48.4233 117.154 48.6013 117.51 48.8474C117.86 49.0935 118.142 49.4076 118.346 49.7899C118.55 50.1721 118.655 50.6381 118.655 51.1827H116.652C116.636 50.8999 116.573 50.6695 116.474 50.481C116.375 50.2978 116.239 50.1512 116.071 50.0464C115.904 49.9417 115.716 49.8684 115.496 49.8213C115.282 49.7794 115.046 49.7532 114.79 49.7532C114.623 49.7532 114.455 49.7689 114.288 49.8056C114.121 49.8422 113.969 49.9051 113.833 49.9889C113.697 50.0726 113.587 50.1878 113.498 50.3187C113.409 50.4496 113.368 50.6172 113.368 50.8214C113.368 51.0046 113.404 51.1565 113.472 51.2717C113.54 51.3869 113.681 51.4916 113.885 51.5859C114.089 51.6853 114.377 51.7796 114.743 51.8738C115.109 51.9733 115.585 52.0938 116.171 52.2456C116.349 52.2823 116.589 52.3451 116.903 52.4393C117.217 52.5336 117.525 52.6802 117.834 52.8792C118.142 53.0834 118.409 53.3504 118.629 53.6908C118.854 54.0311 118.963 54.4605 118.963 54.9893C118.963 55.4187 118.88 55.8218 118.712 56.1884C118.545 56.5601 118.299 56.8743 117.97 57.1466C117.64 57.4136 117.232 57.623 116.746 57.7749C116.26 57.9267 115.695 58 115.052 58C114.534 58 114.032 57.9372 113.54 57.8063C113.054 57.6806 112.62 57.4764 112.249 57.2042C111.877 56.9319 111.579 56.5863 111.359 56.1622C111.14 55.7381 111.035 55.2406 111.04 54.6594H113.043C113.043 54.9736 113.101 55.2459 113.216 55.4658H113.232Z" fill="white"/>
<path d="M98.7301 20.3003L78.4758 0.0261804V11.3309L98.7301 31.6049L104.373 25.95H104.383L111.009 19.3106V39.4329H119V0L98.7301 20.3003Z" fill="#CD0511"/>
<path d="M8.68644 0.162354V15.2213H24.2916V0.162354H32.7688V39.4067H24.2916V22.4785H8.68644V39.4067H0.209229V0.162354H8.68644Z" fill="white"/>
<path d="M66.254 0.162354V7.41955H47.6261V16.4884H63.77V23.1958H47.6261V39.4067H39.1489V0.162354H66.2593H66.254Z" fill="white"/>
<path d="M80.6879 8.02685L72.697 0.026123V39.4328H80.6879V19.3315L98.7405 37.4065V26.0965L80.6879 8.02685Z" fill="white"/>
</g>
<defs>
<clipPath id="clip0_2_1729">
<rect width="119" height="58" fill="white"/>
</clipPath>
</defs>
</svg>
